<svg width="16" height="16" viewBox="0 0 16 16" fill="none" xmlns="http://www.w3.org/2000/svg">
<g clip-path="url(#clip0_512_550)">
<path d="M3.26184 0.882933C2.99231 0.991331 2.85169 1.23742 2.85169 1.60364V1.84387L2.24524 1.85266C1.64758 1.86145 1.63294 1.86438 1.46008 1.94348C1.13489 2.09582 0.906373 2.38293 0.833131 2.72571C0.806764 2.84582 0.800904 4.38684 0.806764 8.95422L0.815553 15.0216L0.93274 15.2531C1.07044 15.5197 1.25501 15.6925 1.51868 15.7892L1.68274 15.8507L7.60657 15.8448L13.5304 15.8361L13.6974 15.757C13.9171 15.6544 14.1134 15.4523 14.2277 15.212L14.3214 15.0157L14.3302 8.95129C14.339 2.58801 14.3419 2.7052 14.213 2.45032C14.1163 2.25989 13.8849 2.03723 13.6827 1.94641C13.504 1.86145 13.4923 1.86145 12.8947 1.85266L12.2853 1.84387V1.60071C12.2853 1.29602 12.1945 1.09094 11.9982 0.953245C11.881 0.874144 11.8458 0.865355 11.5997 0.856565C11.2775 0.844846 11.1544 0.888792 10.9874 1.08508C10.8673 1.22571 10.8204 1.38684 10.8204 1.65344V1.8468H7.56848H4.31653V1.65344C4.31653 1.38684 4.26965 1.22571 4.14954 1.08508C3.99133 0.900511 3.86536 0.850706 3.57825 0.853636C3.44348 0.853636 3.30286 0.868284 3.26184 0.882933ZM3.78333 1.39563C3.83606 1.45715 3.84778 1.50403 3.84778 1.6593V1.8468H3.58411H3.32044V1.6593C3.32044 1.422 3.33801 1.38098 3.44934 1.33117C3.56653 1.27844 3.69837 1.30481 3.78333 1.39563ZM11.6671 1.32239C11.7902 1.36633 11.8165 1.42492 11.8165 1.65344V1.8468H11.5529H11.2892V1.6593C11.2892 1.45422 11.3536 1.3341 11.4738 1.31067C11.5089 1.30481 11.547 1.29602 11.5558 1.29309C11.5646 1.29309 11.6144 1.30481 11.6671 1.32239ZM2.85754 2.74914C2.86633 3.16809 2.86926 3.1886 2.94837 3.30578C3.09485 3.53137 3.41126 3.66907 3.61047 3.60168C3.71594 3.5636 3.75989 3.49914 3.75989 3.3761C3.75989 3.27063 3.66321 3.17981 3.51965 3.15344C3.3468 3.12121 3.32044 3.05969 3.32044 2.66125V2.31555H7.07044H10.8204V2.66125C10.8204 3.09192 10.8644 3.25891 11.0167 3.40539C11.1661 3.54602 11.3009 3.61047 11.465 3.61633C11.6466 3.61926 11.7286 3.55188 11.7286 3.39367C11.7286 3.26184 11.6466 3.16516 11.5353 3.16516C11.4913 3.16516 11.424 3.13 11.3741 3.0802C11.2892 2.99524 11.2892 2.98938 11.2892 2.65539V2.31555H12.3234C13.4747 2.31555 13.4865 2.31848 13.6827 2.52356C13.8585 2.71106 13.8673 2.76672 13.8673 3.92981V4.98157H9.15344H4.44251L4.3634 5.04309C4.26087 5.12512 4.25794 5.27746 4.36047 5.37707L4.43079 5.45032H9.15051H13.8673V8.32727C13.8673 11.1749 13.8673 11.2042 13.8058 11.3273C13.7706 11.4034 13.7003 11.4825 13.6388 11.5206C13.5333 11.5851 13.504 11.588 12.6075 11.6027L11.6818 11.6173L11.4884 11.714C11.2599 11.8253 11.1105 11.9894 11.0226 12.2179C10.9728 12.3497 10.9669 12.4464 10.9669 13.1876C10.9669 13.6886 10.9552 14.0577 10.9347 14.1368C10.8878 14.3185 10.7355 14.462 10.545 14.5031C10.4425 14.5236 9.0509 14.5323 6.08899 14.5265L1.78235 14.5177L1.64172 14.4474C1.48938 14.3741 1.37219 14.2394 1.31067 14.0724C1.27844 13.9816 1.27258 13.1847 1.26965 9.70422V5.45032H2.49719C3.65735 5.45032 3.72766 5.44739 3.79212 5.39465C3.88879 5.31555 3.88879 5.11633 3.79212 5.03723C3.72766 4.9845 3.65735 4.98157 2.49719 4.98157H1.26965V3.92981C1.26965 2.76672 1.27844 2.71106 1.45422 2.52356C1.63001 2.33899 1.7179 2.31555 2.31555 2.31555H2.84583L2.85754 2.74914ZM12.4757 13.1261C11.8986 13.7032 11.424 14.1749 11.421 14.172C11.421 14.1691 11.4269 13.7648 11.4357 13.2726C11.4503 12.4054 11.4532 12.3761 11.5148 12.2882C11.5529 12.2355 11.6378 12.1681 11.7052 12.1329C11.8253 12.0743 11.8751 12.0714 12.6808 12.0714H13.5304L12.4757 13.1261ZM13.838 14.9103C13.7941 15.0802 13.6534 15.2501 13.4952 15.3263L13.3546 15.3966L7.67395 15.4054C3.90637 15.4083 1.93762 15.4025 1.82922 15.382C1.74133 15.3644 1.61829 15.3204 1.55676 15.2794C1.44544 15.2062 1.31946 15.0187 1.28723 14.8781L1.26965 14.799L1.43665 14.8781L1.60657 14.9572H6.38196H11.1573L11.3331 14.8605C11.4738 14.7843 11.7521 14.5236 12.6808 13.5948L13.8527 12.423L13.8615 13.6124C13.8644 14.3448 13.8556 14.8429 13.838 14.9103Z" fill="#14A800"/>
<path d="M2.35352 6.35266C2.28906 6.38782 2.22461 6.4552 2.18652 6.5343C2.12207 6.65735 2.11914 6.69836 2.11914 7.26379C2.11914 7.95813 2.14258 8.05481 2.35059 8.16907C2.45605 8.23059 2.5 8.23352 3.0918 8.23352C3.77734 8.23352 3.85059 8.21887 3.97949 8.04602C4.03516 7.96985 4.03809 7.92297 4.03809 7.26672C4.03809 6.60461 4.03516 6.5636 3.97656 6.4845C3.85352 6.31458 3.78027 6.29993 3.08594 6.29993C2.53223 6.29993 2.44141 6.30579 2.35352 6.35266ZM3.58398 7.26672V7.76477H3.08594H2.58789V7.26672V6.76868H3.08594H3.58398V7.26672Z" fill="#14A800"/>
<path d="M5.34795 6.34973C5.29521 6.3761 5.22197 6.43762 5.18681 6.48743C5.12529 6.57239 5.12236 6.61047 5.11357 7.22864C5.10478 7.83801 5.10771 7.88489 5.16631 7.99622C5.27471 8.21301 5.35674 8.23352 6.07744 8.23352C6.76299 8.23352 6.83916 8.21887 6.96221 8.04602C7.02373 7.95813 7.02666 7.93176 7.02666 7.26086C7.02666 6.60754 7.02373 6.5636 6.96513 6.4845C6.84209 6.31458 6.76885 6.29993 6.07451 6.29993C5.55303 6.29993 5.42705 6.30872 5.34795 6.34973ZM6.57256 7.26672V7.76477H6.07451H5.57646V7.26672V6.76868H6.07451H6.57256V7.26672Z" fill="#14A800"/>
<path d="M8.33301 6.35266C8.27734 6.37903 8.2041 6.44055 8.17188 6.4845C8.11328 6.5636 8.11035 6.60754 8.11035 7.26086C8.11035 7.93176 8.11328 7.95813 8.1748 8.04602C8.29785 8.21887 8.37402 8.23352 9.05957 8.23352C9.78027 8.23352 9.8623 8.21301 9.9707 7.99622C10.0293 7.88489 10.0322 7.83801 10.0234 7.22864C10.0146 6.61047 10.0117 6.57239 9.9502 6.48743C9.82715 6.31458 9.75391 6.29993 9.05664 6.29993C8.52051 6.29993 8.41797 6.30579 8.33301 6.35266ZM9.56055 7.26672V7.76477H9.0625H8.56445V7.26672V6.76868H9.0625H9.56055V7.26672Z" fill="#14A800"/>
<path d="M11.3213 6.35266C11.2656 6.37903 11.1924 6.44055 11.1602 6.4845C11.1016 6.5636 11.0986 6.60461 11.0986 7.26672C11.0986 7.92297 11.1016 7.96985 11.1572 8.04602C11.2861 8.21887 11.3594 8.23352 12.0449 8.23352C12.6367 8.23352 12.6807 8.23059 12.7861 8.16907C12.9941 8.05481 13.0176 7.95813 13.0176 7.26379C13.0176 6.69836 13.0146 6.65735 12.9531 6.5343C12.8389 6.31458 12.7832 6.29993 12.0508 6.29993C11.5088 6.29993 11.4062 6.30579 11.3213 6.35266ZM12.5488 7.26672V7.76477H12.0508H11.5527V7.26672V6.76868H12.0508H12.5488V7.26672Z" fill="#14A800"/>
<path d="M2.3243 9.08897C2.12801 9.22374 2.11629 9.28233 2.12508 10.0118C2.13387 10.6153 2.1368 10.6681 2.1954 10.7413C2.34188 10.9405 2.3536 10.9435 3.05086 10.9523C3.66903 10.961 3.68954 10.961 3.81551 10.8937C4.03817 10.7735 4.05282 10.7208 4.05282 9.97667C4.05282 9.25596 4.0411 9.20323 3.84188 9.08311C3.75399 9.03038 3.69247 9.02452 3.08309 9.02452C2.44442 9.02452 2.41805 9.02745 2.3243 9.08897ZM3.58407 9.99132V10.4894H3.08602H2.58797V9.99132V9.49327H3.08602H3.58407V9.99132Z" fill="#14A800"/>
<path d="M5.30957 9.09192C5.125 9.21497 5.10742 9.28821 5.10742 9.97375C5.10742 10.5333 5.11328 10.5978 5.16895 10.712C5.21289 10.8029 5.2627 10.8527 5.35352 10.8966C5.46484 10.9523 5.53223 10.9581 6.07422 10.9581C6.76562 10.9581 6.8623 10.9347 6.97656 10.7267C7.03809 10.6212 7.04102 10.5773 7.04102 9.9884C7.04102 9.28528 7.02637 9.21497 6.83887 9.09192C6.74219 9.02747 6.71582 9.02454 6.07422 9.02454C5.43262 9.02454 5.40625 9.02747 5.30957 9.09192ZM6.57227 9.99133V10.4894H6.07422H5.57617V9.99133V9.49329H6.07422H6.57227V9.99133Z" fill="#14A800"/>
<path d="M8.29785 9.09192C8.11035 9.21497 8.0957 9.28528 8.0957 9.9884C8.0957 10.5773 8.09863 10.6212 8.16016 10.7267C8.27441 10.9347 8.37109 10.9581 9.0625 10.9581C9.60449 10.9581 9.67188 10.9523 9.7832 10.8966C9.87402 10.8527 9.92383 10.8029 9.96777 10.712C10.0234 10.5978 10.0293 10.5333 10.0293 9.97375C10.0293 9.28821 10.0117 9.21497 9.82715 9.09192C9.73047 9.02747 9.7041 9.02454 9.0625 9.02454C8.4209 9.02454 8.39453 9.02747 8.29785 9.09192ZM9.56055 9.99133V10.4894H9.0625H8.56445V9.99133V9.49329H9.0625H9.56055V9.99133Z" fill="#14A800"/>
<path d="M11.3213 9.13586C11.2656 9.16223 11.1924 9.22375 11.1602 9.2677C11.1016 9.3468 11.0986 9.38782 11.0986 10.0499C11.0986 10.7062 11.1016 10.7531 11.1572 10.8292C11.2861 11.0021 11.3594 11.0167 12.0449 11.0167C12.6367 11.0167 12.6807 11.0138 12.7861 10.9523C12.9941 10.838 13.0176 10.7413 13.0176 10.047C13.0176 9.48157 13.0146 9.44055 12.9531 9.3175C12.8389 9.09778 12.7832 9.08313 12.0508 9.08313C11.5088 9.08313 11.4062 9.08899 11.3213 9.13586ZM12.5488 10.0499V10.548H12.0508H11.5527V10.0499V9.55188H12.0508H12.5488V10.0499Z" fill="#14A800"/>
<path d="M2.32129 11.8165C2.13672 11.9396 2.11914 12.0128 2.11914 12.7013C2.11914 13.3898 2.13672 13.463 2.32129 13.5861C2.41797 13.6505 2.44141 13.6534 3.10352 13.6534H3.7832L3.87695 13.5773C4.04395 13.4337 4.05273 13.3956 4.05273 12.7013C4.05273 12.007 4.04395 11.9689 3.87695 11.8253L3.7832 11.7491H3.10352C2.44141 11.7491 2.41797 11.7521 2.32129 11.8165ZM3.58398 12.7013V13.214H3.08594H2.58789V12.7013V12.1886H3.08594H3.58398V12.7013Z" fill="#14A800"/>
<path d="M5.3125 11.8136C5.125 11.9396 5.10742 12.0099 5.10742 12.7013C5.10742 13.3927 5.125 13.463 5.3125 13.589C5.41211 13.6564 5.42383 13.6564 6.10645 13.6476L6.80078 13.6388L6.88281 13.5655C7.02637 13.4308 7.04102 13.3546 7.04102 12.7013C7.04102 12.048 7.02637 11.9718 6.88281 11.837L6.80078 11.7638L6.10645 11.755C5.42383 11.7462 5.41211 11.7462 5.3125 11.8136ZM6.57227 12.7013V13.214H6.07422H5.57617V12.7013V12.1886H6.07422H6.57227V12.7013Z" fill="#14A800"/>
<path d="M8.34473 11.7784C8.26562 11.8107 8.16602 11.922 8.12793 12.0216C8.11035 12.0685 8.0957 12.2091 8.0957 12.338C8.0957 12.5489 8.10449 12.5782 8.16895 12.6427C8.21289 12.6896 8.27441 12.7159 8.33008 12.7159C8.38574 12.7159 8.44727 12.6896 8.49121 12.6427C8.55566 12.5812 8.56445 12.546 8.56445 12.379V12.1886H9.0625H9.56055V12.7013V13.214H9.06543H8.57031L8.55273 13.1407C8.54102 13.0939 8.49414 13.047 8.43262 13.0177C8.33594 12.9708 8.32422 12.9708 8.22754 13.0177C8.05469 13.0997 8.05176 13.3399 8.22754 13.5304L8.32422 13.6388L9.02441 13.6476C9.71289 13.6564 9.72461 13.6564 9.82422 13.589C10.0117 13.463 10.0293 13.3927 10.0293 12.7013C10.0293 12.0128 10.0117 11.9396 9.82715 11.8165C9.73047 11.7521 9.70703 11.7491 9.06543 11.7521C8.70215 11.7521 8.37695 11.7638 8.34473 11.7784Z" fill="#14A800"/>
</g>
<defs>
<clipPath id="clip0_512_550">
<rect width="15" height="15" fill="white" transform="translate(0.0683594 0.850708)"/>
</clipPath>
</defs>
</svg>
