<svg width="76" height="13" viewBox="0 0 76 13" fill="none" xmlns="http://www.w3.org/2000/svg">
<path d="M6.44347 0.446777L7.74936 4.46589L11.9753 4.46589L8.55644 6.94984L9.86233 10.969L6.44347 8.485L3.02461 10.969L4.33049 6.94984L0.911633 4.46589L5.13758 4.46589L6.44347 0.446777Z" fill="#FFC700"/>
<path d="M22.2311 0.446793L23.537 4.4659L27.7629 4.46591L24.344 6.94985L25.6499 10.969L22.2311 8.48502L18.8122 10.969L20.1181 6.94985L16.6992 4.46591L20.9252 4.4659L22.2311 0.446793Z" fill="#FFC700"/>
<path d="M38.0187 0.446793L39.3246 4.4659L43.5505 4.46591L40.1316 6.94985L41.4375 10.969L38.0187 8.48502L34.5998 10.969L35.9057 6.94985L32.4868 4.46591L36.7128 4.4659L38.0187 0.446793Z" fill="#FFC700"/>
<path d="M53.8067 0.446793L55.1126 4.4659L59.3386 4.46591L55.9197 6.94985L57.2256 10.969L53.8067 8.48502L50.3879 10.969L51.6938 6.94985L48.2749 4.46591L52.5009 4.4659L53.8067 0.446793Z" fill="#FFC700"/>
<path d="M69.5943 0.446793L70.9002 4.4659L75.1262 4.46591L71.7073 6.94985L73.0132 10.969L69.5943 8.48502L66.1755 10.969L67.4814 6.94985L64.0625 4.46591L68.2885 4.4659L69.5943 0.446793Z" fill="#FFC700"/>
</svg>
